<?xml version="1.0" standalone="no"?>
<!DOCTYPE svg PUBLIC "-//W3C//DTD SVG 20010904//EN"
 "http://www.w3.org/TR/2001/REC-SVG-20010904/DTD/svg10.dtd">
<svg version="1.0" xmlns="http://www.w3.org/2000/svg"
 width="512.000000pt" height="512.000000pt" viewBox="0 0 512.000000 512.000000"
 preserveAspectRatio="xMidYMid meet">

<g transform="translate(0.000000,512.000000) scale(0.100000,-0.100000)"
fill="#000000" stroke="none">
<path d="M2270 5089 c-324 -43 -615 -133 -878 -270 -566 -295 -1013 -822
-1215 -1434 -272 -822 -132 -1689 384 -2382 88 -116 302 -339 414 -430 180
-146 410 -284 610 -368 343 -145 614 -199 980 -199 241 0 350 12 580 65 161
36 184 53 32 22 -255 -51 -311 -55 -667 -51 -329 5 -338 5 -485 36 -179 37
-243 56 -227 66 7 4 16 5 21 2 5 -3 25 1 45 9 19 8 51 15 69 15 25 0 39 7 50
22 15 22 16 22 12 2 -3 -17 2 -20 31 -21 19 -1 41 -7 49 -13 12 -10 15 -10 16
1 0 8 4 4 10 -9 5 -13 13 -21 18 -17 5 3 13 0 16 -5 5 -7 12 -5 20 7 7 10 11
22 7 28 -3 5 3 3 13 -5 14 -11 19 -12 22 -2 3 6 9 10 14 7 5 -4 6 1 2 10 -4
12 -8 13 -13 5 -6 -9 -9 -9 -15 0 -4 6 -14 9 -22 6 -8 -3 -11 -1 -8 4 8 13 -5
13 -25 0 -10 -6 -11 -10 -2 -10 6 0 12 -8 11 -17 0 -11 -3 -13 -6 -5 -2 6 -8
10 -13 7 -5 -3 -7 3 -6 12 2 10 -6 23 -18 30 -14 9 -16 12 -6 13 12 0 11 4 -4
15 -33 25 -4 17 53 -15 67 -37 77 -38 29 -4 -21 15 -35 31 -32 36 4 5 16 1 28
-10 11 -11 34 -31 50 -46 16 -14 33 -26 38 -26 5 0 6 -5 3 -10 -4 -6 -1 -9 7
-8 7 2 12 -2 11 -8 -1 -6 3 -11 10 -11 7 0 21 -4 32 -7 12 -4 9 -1 -6 8 -26
15 -79 78 -79 93 0 4 6 1 13 -7 7 -8 23 -24 37 -35 l24 -20 -21 30 c-11 17
-30 39 -42 49 -12 11 -21 24 -21 29 0 6 10 2 22 -9 12 -10 18 -13 14 -6 -8 13
6 17 18 5 7 -8 11 -9 37 -12 5 0 7 -6 4 -11 -4 -6 -11 -7 -17 -4 -6 4 -6 -2 1
-15 14 -25 19 -27 17 -5 0 9 5 19 13 22 9 3 11 0 6 -8 -4 -7 4 -6 23 4 23 12
33 13 38 4 4 -7 3 -8 -4 -4 -18 11 -14 0 5 -15 9 -8 14 -9 10 -2 -4 6 7 23 25
39 18 15 32 31 30 36 -1 5 2 7 8 3 6 -4 17 -2 25 5 9 8 15 8 20 0 3 -6 11 -8
16 -4 5 3 6 11 2 17 -4 7 1 5 12 -3 16 -13 16 -15 2 -18 -10 -2 -17 -8 -17
-13 0 -5 -5 -9 -11 -9 -5 0 -7 4 -4 10 3 5 2 10 -3 10 -11 0 -41 -32 -39 -42
1 -3 -1 -10 -5 -14 -4 -3 -5 3 -3 15 2 12 0 19 -6 16 -5 -4 -7 -11 -4 -16 4
-5 0 -12 -8 -15 -7 -2 -14 -12 -14 -21 0 -13 2 -13 14 3 7 10 13 15 13 11 0
-4 9 -3 20 3 28 15 46 2 23 -16 -10 -7 -14 -14 -10 -14 5 0 24 12 43 26 29 23
32 29 22 43 -10 13 -8 12 8 -2 22 -19 29 -51 8 -43 -10 4 -12 -12 -4 -34 1 -3
2 -9 1 -14 -1 -4 14 1 32 13 19 11 37 18 40 15 3 -4 21 4 39 17 18 13 35 24
38 24 3 1 25 13 48 29 51 32 61 30 32 -7 -13 -16 -17 -28 -10 -32 6 -4 9 -3 8
2 -2 4 1 8 7 8 5 0 9 -4 7 -9 -2 -5 4 -3 13 4 12 10 19 10 27 2 15 -15 28 -15
28 -1 0 5 -4 8 -9 4 -5 -3 -12 -1 -16 5 -3 5 1 10 9 10 9 0 16 5 16 10 0 6 4
10 10 10 5 0 7 -8 3 -18 -5 -14 -2 -14 18 4 57 50 59 43 11 -26 -16 -23 -17
-27 -4 -13 27 31 47 31 32 0 -8 -15 -2 -11 17 11 33 38 53 43 29 7 -27 -41
-18 -42 17 -1 23 27 39 37 53 33 17 -4 17 -5 -3 -6 -12 0 -25 -6 -28 -11 -4
-7 3 -8 20 -4 l26 6 -31 -31 c-36 -36 -31 -65 6 -30 14 14 31 20 44 16 11 -3
18 -1 14 4 -3 5 -15 9 -27 10 -24 1 -18 4 25 13 20 5 26 10 21 23 -4 11 -3 14
5 9 7 -4 12 -1 12 8 0 16 -44 51 -75 59 -18 4 -18 5 -2 6 11 0 33 -9 50 -21
18 -13 34 -23 37 -23 3 0 3 -7 2 -15 -2 -8 -5 -19 -5 -23 -1 -4 13 -14 31 -22
18 -8 30 -10 27 -5 -10 16 5 11 38 -12 21 -14 27 -16 19 -6 -8 10 -10 23 -6
29 5 8 3 9 -5 4 -8 -4 -23 4 -41 23 -15 17 -32 28 -36 24 -5 -4 -6 -3 -2 2 8
9 -19 33 -64 55 -20 10 -34 11 -58 3 -17 -6 -28 -7 -25 -2 3 5 21 12 40 16 26
5 41 1 65 -16 29 -20 32 -21 49 -6 14 13 20 13 31 3 12 -10 12 -9 1 5 -7 10
-17 16 -21 13 -4 -3 -13 1 -19 9 -6 7 -24 12 -40 11 -22 -1 -28 2 -23 13 4 11
1 14 -10 9 -10 -3 -19 0 -22 9 -3 9 -11 12 -17 8 -8 -4 -9 -3 -5 5 6 9 12 9
24 -1 15 -11 15 -11 5 3 -7 9 -10 18 -7 22 3 3 -4 3 -17 0 -18 -5 -21 -3 -16
10 3 9 3 16 -1 14 -4 -1 -18 8 -32 21 -13 12 -27 22 -32 22 -4 0 -17 9 -29 21
-11 11 -27 18 -35 15 -7 -3 -13 0 -11 6 1 6 -10 18 -24 26 -24 14 -29 14 -68
-6 -23 -12 -47 -19 -53 -16 -6 4 -8 3 -5 -3 4 -6 -20 -22 -56 -38 -34 -15 -79
-36 -101 -47 -21 -10 -45 -17 -53 -14 -8 3 -12 2 -9 -3 3 -5 -4 -11 -17 -15
-31 -8 -59 -7 -54 1 3 5 -11 9 -31 9 -44 2 -229 57 -282 84 -21 11 -40 27 -44
36 -4 9 -9 14 -13 11 -8 -8 -63 21 -63 33 0 6 -12 8 -27 5 -26 -5 -26 -5 -5 4
27 13 77 -3 66 -21 -4 -6 -3 -8 3 -5 6 4 36 -7 67 -24 30 -17 60 -27 66 -24 6
4 9 1 8 -6 -3 -14 74 -48 112 -49 14 0 43 -7 65 -14 38 -13 131 -13 165 1 15
6 27 8 65 11 16 2 14 6 -15 32 l-35 31 40 -24 c34 -20 44 -22 67 -12 l28 11
-32 12 c-17 6 -29 15 -25 18 4 4 2 13 -4 21 -7 8 -8 13 -1 13 14 0 33 -26 25
-34 -4 -4 5 -2 21 4 16 6 31 8 34 5 3 -2 -5 -8 -18 -13 -20 -8 -21 -9 -6 -15
21 -8 39 0 31 14 -4 5 0 9 7 9 7 0 -2 9 -21 21 -46 28 -34 33 18 8 23 -11 46
-19 51 -17 4 2 -20 17 -55 33 -35 17 -59 25 -53 18 7 -9 7 -13 0 -13 -6 0 -14
5 -17 10 -3 6 -12 10 -18 10 -7 0 3 -10 21 -21 18 -12 31 -24 28 -26 -7 -8
-68 28 -94 55 -14 15 -22 20 -17 12 4 -8 -13 8 -38 35 l-45 50 -48 -18 c-60
-23 -115 -34 -64 -14 104 43 86 45 232 -26 147 -72 193 -88 223 -77 24 9 37 4
87 -27 21 -13 49 -23 64 -23 21 0 24 -3 15 -14 -9 -10 -3 -18 26 -37 33 -21
48 -24 112 -21 l74 3 -31 29 c-33 30 -87 46 -122 37 -11 -3 -22 -2 -25 3 -16
26 136 5 184 -26 24 -16 25 -16 12 -1 -22 28 4 19 30 -10 13 -14 18 -23 12
-19 -19 10 -16 1 4 -15 11 -10 14 -10 9 -1 -12 19 5 14 32 -10 14 -13 22 -18
18 -11 -3 6 -2 14 4 18 5 3 10 1 10 -4 0 -6 8 -11 18 -11 14 0 15 -2 2 -10
-10 -6 -2 -9 28 -8 35 0 40 3 31 14 -6 7 -14 13 -17 12 -4 0 -18 0 -32 1 -22
1 -23 3 -9 16 14 14 20 13 63 -6 26 -11 54 -18 62 -15 9 3 12 1 9 -4 -3 -6 1
-10 10 -10 11 0 15 5 11 15 -4 12 0 15 22 12 15 -2 46 4 70 14 44 19 54 16 25
-8 -12 -8 0 -6 32 6 86 32 91 33 44 7 -59 -32 -167 -67 -233 -75 -28 -3 -49
-10 -48 -16 2 -5 9 -8 15 -6 7 1 21 4 32 6 35 6 69 14 95 24 33 13 83 25 93
23 4 -1 7 3 7 10 0 6 3 9 6 5 4 -3 22 0 40 8 22 9 34 10 34 3 0 -7 5 -6 15 2
8 7 21 10 29 7 8 -3 16 -2 18 3 2 5 17 10 35 12 17 1 31 7 30 13 -1 5 8 9 21
9 12 -1 22 4 22 11 0 13 24 15 36 3 3 -4 21 3 39 14 21 12 42 17 55 13 11 -4
20 -2 20 4 0 15 27 14 32 -1 3 -9 6 -9 12 0 4 7 2 12 -3 12 -6 0 -11 5 -11 10
0 7 7 7 21 -1 19 -10 21 -9 17 9 -4 16 -1 19 17 18 13 0 20 -5 17 -11 -13 -22
142 121 221 204 195 205 364 471 483 758 144 347 213 777 185 1142 -7 86 -19
191 -27 234 -35 189 -47 244 -61 270 -8 16 -12 31 -9 34 3 3 -2 22 -10 42 -9
20 -17 41 -18 46 -6 33 -91 231 -152 355 -289 582 -817 1053 -1409 1255 -288
98 -531 136 -855 134 -113 -1 -234 -5 -270 -10z m1439 -791 c96 -47 216 -170
267 -274 38 -78 39 -81 39 -194 0 -108 -2 -119 -31 -180 -42 -88 -103 -161
-175 -209 -79 -53 -205 -89 -192 -54 3 7 9 11 13 8 5 -3 15 2 23 10 9 8 21 15
27 15 6 0 9 4 5 9 -3 5 4 12 15 16 11 4 18 10 16 14 -3 4 4 15 15 24 11 10 17
22 14 27 -3 6 -1 10 4 10 6 0 11 5 11 11 0 7 15 26 33 43 18 17 26 25 17 19
-18 -14 -59 -18 -46 -5 4 4 12 7 18 7 6 0 16 9 22 20 6 11 15 23 19 26 14 10
36 57 29 63 -3 3 -12 0 -21 -6 -13 -10 -14 -10 -3 2 6 8 12 23 12 34 0 17 2
18 10 6 10 -15 12 -5 13 67 1 17 4 20 14 11 7 -5 10 -15 6 -21 -3 -5 -1 -7 5
-3 6 3 18 -1 26 -10 9 -8 16 -11 16 -5 0 6 9 11 20 11 12 0 20 7 20 18 0 13
-2 14 -9 4 -6 -10 -10 -7 -15 12 -4 15 -10 25 -14 23 -16 -10 -52 14 -67 44
l-17 32 39 -8 c21 -3 46 -14 55 -22 23 -20 37 -9 33 27 -7 54 -32 88 -74 101
-26 8 -41 19 -45 32 -3 12 -3 23 -1 26 3 2 5 -1 5 -7 0 -7 6 -12 14 -12 8 0
22 -7 30 -16 27 -26 32 10 6 46 -23 32 -54 40 -64 15 -8 -21 -33 -19 -69 7
l-32 23 35 6 c19 3 44 10 54 14 16 7 18 5 13 -8 -7 -17 8 -24 17 -8 9 14 -112
124 -130 117 -10 -4 -13 -2 -8 6 5 8 2 9 -9 5 -9 -3 -22 -1 -29 6 -8 7 -20 13
-28 15 -8 2 -17 7 -20 11 -6 9 -56 28 -90 35 -14 3 2 3 34 0 39 -3 83 -16 125
-36z m-1576 -349 c78 -17 117 -52 117 -107 0 -29 8 -49 31 -78 22 -28 27 -40
17 -42 -11 -2 -14 -19 -12 -70 1 -37 -1 -54 -3 -39 -3 19 -9 27 -18 23 -8 -3
-32 4 -54 15 -22 10 -45 19 -51 19 -5 0 -10 5 -10 11 0 6 7 8 16 5 9 -3 24 -6
34 -6 11 0 28 -9 39 -21 l19 -21 12 22 c8 15 8 20 1 16 -6 -4 -11 -1 -12 6 0
11 -2 11 -6 0 -4 -11 -8 -10 -22 1 -24 22 -88 39 -113 32 -18 -5 -20 -4 -8 4
8 6 28 11 44 11 24 0 27 2 16 15 -9 11 -23 13 -50 9 -50 -8 -63 13 -14 22 44
8 25 27 -21 19 -29 -5 -29 -4 5 9 19 8 28 15 20 16 -10 1 -9 4 5 10 11 4 -17
5 -65 2 -47 -3 -87 -8 -90 -11 -7 -8 -58 -6 -91 3 -16 5 -29 3 -33 -3 -4 -6 0
-11 8 -11 8 0 17 -4 21 -9 3 -6 -8 -5 -27 1 -63 19 -73 19 -143 -1 l-70 -20
85 -1 c75 -2 215 -26 166 -29 -17 -1 -18 -3 -5 -13 8 -7 23 -24 34 -37 13 -16
1 -10 -36 17 -31 23 -67 42 -80 42 l-23 0 24 -17 c40 -27 50 -45 37 -62 -10
-12 -9 -14 6 -8 12 5 17 1 17 -13 0 -10 -5 -22 -12 -26 -7 -5 -8 -3 -3 6 4 7
2 16 -6 21 -7 4 -14 18 -14 31 0 13 -5 22 -12 21 -7 -2 -13 2 -13 8 0 5 -5 7
-12 3 -7 -4 -8 -3 -4 4 4 7 1 12 -6 13 -7 0 -31 2 -53 5 -29 3 -36 2 -25 -6
26 -17 -5 -11 -49 11 -24 11 -50 18 -59 14 -13 -5 -14 -8 -3 -15 11 -6 10 -9
-5 -13 -18 -4 -18 -5 1 -6 52 -3 44 -19 -28 -54 -40 -20 -96 -55 -123 -79
l-49 -42 38 40 c20 22 34 44 30 48 -4 4 1 4 11 0 15 -6 17 -4 11 7 -4 8 -4 11
0 6 9 -8 65 40 65 57 0 5 -12 -1 -27 -15 -16 -13 -10 -4 12 19 22 24 54 51 70
59 45 24 223 83 249 83 13 0 35 9 50 21 22 17 25 18 19 3 -4 -12 -2 -15 8 -12
8 3 13 10 12 16 -1 5 7 8 18 5 16 -5 18 -8 7 -14 -7 -5 17 -6 58 -3 64 6 77 4
129 -20 31 -15 59 -25 62 -23 2 3 -17 21 -43 41 -40 31 -54 36 -103 37 -42 0
-51 2 -35 9 12 5 25 13 29 19 11 19 -38 12 -73 -9 -18 -11 -40 -20 -50 -20
-13 1 -11 6 12 26 16 14 35 23 42 20 8 -3 24 -1 36 4 24 10 28 9 121 -11z
m1624 -41 c6 -7 13 -22 17 -32 5 -16 4 -17 -9 -6 -8 7 -15 18 -15 25 0 8 -6
16 -12 18 -8 4 -9 6 -2 6 6 1 16 -5 21 -11z m-1181 -54 c74 -35 116 -104 154
-251 8 -31 19 -47 45 -63 19 -12 35 -26 35 -31 0 -13 -53 24 -112 78 -26 24
-61 46 -78 50 -57 11 -46 26 15 18 56 -7 57 -6 50 17 -11 34 -83 128 -99 128
-8 0 -16 7 -19 14 -8 20 -81 39 -120 31 -47 -9 -90 -26 -110 -44 -17 -14 -16
-15 10 -28 15 -7 20 -11 10 -8 -10 3 -30 5 -44 5 -26 0 -26 0 -7 21 10 12 37
35 58 50 34 25 48 29 108 29 44 0 83 -6 104 -16z m1232 -38 c-7 -8 -16 -12
-21 -9 -11 7 2 23 19 23 12 0 12 -2 2 -14z m-1247 -127 c23 -19 23 -20 2 -10
-12 6 -32 11 -45 11 -18 0 -20 2 -8 10 21 13 25 13 51 -11z m-874 -21 c-26 -9
-27 -11 -10 -24 17 -13 17 -14 -2 -7 -11 4 -26 12 -33 19 -10 10 -7 13 10 17
45 9 64 6 35 -5z m58 -8 c3 -6 -1 -7 -9 -4 -18 7 -21 14 -7 14 6 0 13 -4 16
-10z m-120 -10 c3 -5 2 -10 -4 -10 -5 0 -17 -3 -27 -7 -16 -6 -17 -5 -4 10 17
19 26 21 35 7z m630 -60 c14 -23 30 -38 34 -36 5 3 11 -8 15 -25 3 -17 15 -44
27 -60 11 -16 16 -29 10 -29 -6 0 -1 -10 12 -22 12 -13 24 -22 27 -21 3 1 6
-8 6 -20 1 -12 5 -33 9 -47 6 -23 5 -24 -8 -7 -18 22 -37 22 -37 0 0 -12 -3
-14 -10 -7 -13 13 -3 44 14 44 6 0 0 10 -14 21 -14 11 -19 17 -11 13 10 -5 12
-3 7 5 -5 7 -15 10 -23 7 -8 -3 -11 -1 -8 4 3 6 -1 10 -9 10 -22 0 -20 30 2
31 15 1 14 2 -2 6 -14 4 -16 7 -6 13 9 6 5 12 -16 24 l-29 16 30 -6 c28 -6 29
-5 10 8 -11 8 -33 18 -50 22 l-30 8 24 12 24 13 -30 10 c-23 9 -31 8 -39 -4
-7 -11 -9 -8 -9 12 0 24 3 26 32 23 18 -2 30 -1 25 3 -4 4 -23 9 -42 12 l-35
4 37 1 c34 2 40 -2 63 -38z m-776 7 c-2 -1 -11 -8 -20 -15 -13 -9 -16 -9 -16
3 0 8 9 15 20 15 11 0 18 -1 16 -3z m73 -19 c-9 -9 -15 -9 -24 0 -9 9 -7 12
12 12 19 0 21 -3 12 -12z m241 -12 c20 -9 37 -22 37 -28 0 -5 -6 -8 -12 -5 -7
2 -37 10 -65 17 -29 8 -53 18 -53 22 0 5 4 7 8 4 4 -2 14 -1 22 4 8 5 17 7 20
6 3 -1 22 -10 43 -20z m-403 -27 c-24 -11 -57 -34 -73 -52 -19 -21 -17 -17 6
13 31 41 58 57 97 59 8 0 -5 -9 -30 -20z m263 14 c-7 -2 -21 -2 -30 0 -10 3
-4 5 12 5 17 0 24 -2 18 -5z m206 -29 c4 3 8 -1 8 -9 0 -11 -4 -12 -14 -4 -7
6 -13 17 -12 23 0 7 2 6 6 -2 2 -6 8 -10 12 -8z m-146 -20 c-4 -12 0 -14 21
-8 16 4 26 2 26 -5 0 -6 -9 -11 -19 -11 -11 0 -23 -4 -26 -10 -3 -5 3 -10 14
-10 27 0 51 -10 51 -22 0 -5 9 -23 21 -39 30 -43 5 -35 -44 14 -23 23 -52 48
-63 56 -20 13 -20 15 -5 31 20 23 32 25 24 4z m-57 -69 c-7 -18 -26 -20 -26
-2 0 18 24 41 28 27 2 -6 1 -17 -2 -25z m-786 21 c0 -3 -4 -8 -10 -11 -5 -3
-10 -1 -10 4 0 6 5 11 10 11 6 0 10 -2 10 -4z m860 -26 c0 -5 -5 -10 -11 -10
-5 0 -7 5 -4 10 3 6 8 10 11 10 2 0 4 -4 4 -10z m-410 -14 c0 -2 -8 -10 -17
-17 -16 -13 -17 -12 -4 4 13 16 21 21 21 13z m-60 -61 c-13 -14 -28 -25 -34
-25 -6 0 3 13 19 28 36 34 48 32 15 -3z m425 15 c-3 -5 -13 -10 -21 -10 -8 0
-12 5 -9 10 3 6 13 10 21 10 8 0 12 -4 9 -10z m55 -22 c0 9 7 8 25 -4 14 -9
32 -14 40 -10 9 3 15 0 15 -8 0 -7 8 -22 18 -32 30 -34 177 -124 203 -124 23
-1 23 -1 6 -15 -18 -13 -18 -14 1 -24 13 -7 22 -7 30 1 20 20 36 -5 25 -39
-12 -34 -38 -41 -63 -18 -12 11 -28 15 -41 12 -21 -6 -21 -5 -3 12 15 14 22
16 34 7 13 -9 13 -9 1 6 -10 13 -18 15 -31 8 -10 -6 -42 -10 -71 -10 -74 0
-51 17 26 20 26 0 28 2 12 11 -11 6 -30 9 -43 6 -27 -5 -42 8 -19 17 8 3 15
11 15 17 0 8 -13 10 -39 5 -38 -6 -65 6 -39 18 7 3 1 3 -13 1 -18 -2 -26 2
-26 12 0 10 7 13 21 9 12 -3 29 -6 39 -6 10 0 15 -4 12 -10 -8 -12 5 -13 24
-1 21 14 -39 41 -90 41 l-42 0 19 22 c10 12 13 18 7 14 -8 -4 -13 -2 -14 6 0
10 -2 10 -6 1 -2 -7 -9 -13 -14 -13 -6 0 -7 5 -4 10 4 6 -7 10 -25 10 -26 0
-29 3 -22 16 5 9 7 26 4 38 -4 21 -4 21 11 1 10 -12 16 -15 17 -7z m-47 -3
c-3 -9 -8 -14 -10 -11 -3 3 -2 9 2 15 9 16 15 13 8 -4z m-86 -11 c-3 -3 -12
-4 -19 -1 -8 3 -5 6 6 6 11 1 17 -2 13 -5z m-227 -49 c-7 -8 -17 -15 -23 -15
-6 0 -2 7 9 15 25 19 30 19 14 0z m267 -17 c-3 -7 -5 -2 -5 12 0 14 2 19 5 13
2 -7 2 -19 0 -25z m839 -78 c26 -60 41 -70 106 -70 49 0 63 -4 83 -25 35 -34
31 -55 -3 -22 -34 33 -41 34 -36 5 2 -13 2 -17 -2 -10 -3 6 -10 10 -15 6 -5
-3 -9 2 -9 11 0 9 -5 13 -10 10 -6 -4 -8 -11 -5 -16 4 -5 2 -9 -4 -9 -5 0 -11
5 -13 12 -3 8 -13 5 -33 -10 -32 -25 -54 -29 -35 -7 10 12 8 22 -14 55 -14 21
-39 49 -56 61 -34 26 -38 39 -12 39 11 1 7 6 -13 16 l-30 14 30 -6 c20 -4 27
-2 20 5 -5 5 -28 11 -50 13 -47 4 -53 20 -10 29 25 5 35 0 63 -30 18 -20 40
-52 48 -71z m-1147 77 c-2 -2 -17 -11 -34 -22 l-30 -18 19 21 c11 12 26 22 34
22 9 0 13 -1 11 -3z m486 -86 c3 -5 1 -12 -5 -16 -5 -3 -10 1 -10 9 0 18 6 21
15 7z m399 -148 c137 -86 174 -118 182 -158 3 -20 10 -38 15 -41 5 -3 36 18
69 46 33 29 60 47 60 42 0 -6 -20 -27 -45 -47 -25 -21 -42 -42 -38 -48 3 -5 1
-7 -5 -3 -6 3 -14 1 -18 -5 -3 -6 0 -15 7 -20 11 -6 11 -9 -1 -13 -8 -3 -24
-4 -35 -2 -11 3 -26 5 -34 5 -9 1 -11 9 -7 27 5 17 3 23 -4 19 -5 -3 -10 -1
-10 4 0 6 -4 11 -10 11 -5 0 -10 -7 -10 -15 0 -8 5 -15 12 -15 6 0 8 -3 5 -6
-4 -4 -13 -1 -22 6 -8 7 -21 10 -29 7 -20 -8 -28 3 -15 20 14 17 32 17 24 1
-4 -7 0 -5 9 6 8 10 20 15 27 10 7 -4 10 -3 5 4 -3 6 4 18 16 26 l22 16 -24 0
c-14 0 -32 4 -40 10 -9 6 -17 5 -21 -2 -8 -13 -93 15 -123 41 -18 16 -76 109
-76 124 0 16 26 4 114 -50z m1091 42 c153 -40 275 -139 347 -283 43 -87 43
-87 43 -197 0 -86 -4 -117 -18 -142 -10 -18 -22 -33 -28 -33 -8 0 -8 4 0 13 6
8 8 17 4 20 -3 4 -2 7 4 7 5 0 10 6 11 13 0 6 3 24 6 40 6 24 3 27 -21 28
l-28 2 28 4 c28 4 34 29 12 45 -6 5 -6 8 1 8 18 0 4 50 -15 51 -10 0 -11 2 -3
6 6 2 12 9 12 14 0 4 -7 6 -15 3 -8 -4 -15 -13 -15 -22 0 -26 -7 -9 -14 33 -4
30 -3 35 4 18 10 -24 25 -30 35 -14 7 13 -24 91 -37 91 -5 0 -7 4 -4 9 3 5 -3
20 -14 34 -11 14 -20 29 -20 35 0 16 -99 111 -143 136 -82 47 -183 76 -264 76
-84 0 -197 -26 -186 -43 3 -5 1 -7 -4 -4 -18 11 -103 -32 -113 -58 -5 -13 -15
-27 -22 -31 -10 -6 -10 -4 1 9 22 28 8 28 -26 1 -17 -13 -30 -32 -29 -41 3
-20 -15 -43 -28 -36 -4 3 -2 9 5 14 7 4 10 11 6 16 -5 4 -12 1 -17 -7 -11 -18
44 -80 72 -80 12 0 16 -5 12 -17 -5 -15 -3 -15 13 2 10 11 27 27 38 35 19 14
20 14 2 -6 -10 -13 -15 -29 -11 -40 5 -16 4 -16 -5 -4 -9 13 -11 13 -11 -2 0
-20 15 -24 25 -8 4 6 18 0 37 -15 16 -14 35 -22 41 -18 7 3 9 2 4 -2 -4 -5 3
-20 15 -33 13 -14 16 -22 8 -17 -12 6 -13 5 -3 -5 10 -11 15 -11 28 0 8 7 15
19 15 26 0 8 3 13 8 12 4 -1 24 4 45 11 53 18 68 20 96 9 16 -6 28 -4 39 4 11
9 13 9 9 1 -4 -7 1 -14 13 -18 11 -4 17 -11 14 -17 -5 -7 0 -9 14 -6 12 4 20
2 16 -3 -3 -5 0 -9 7 -9 7 0 9 -3 6 -7 -4 -3 -2 -12 4 -19 14 -17 40 -116 28
-108 -8 5 -14 -19 -9 -41 1 -5 -2 -7 -6 -3 -4 4 -13 3 -21 -3 -9 -9 -13 -8
-13 0 0 6 4 11 9 11 5 0 8 8 7 18 -2 9 2 20 8 24 7 5 4 8 -8 8 -15 0 -16 3 -6
15 7 8 8 15 4 15 -5 0 -15 14 -23 31 -18 42 -80 79 -132 79 -35 0 -48 -6 -80
-39 -46 -46 -53 -84 -24 -143 13 -27 13 -27 -11 -11 -17 11 -23 22 -20 39 3
17 -4 31 -27 50 -18 14 -25 23 -17 18 9 -4 12 -3 7 2 -5 5 -16 9 -25 9 -9 0
-16 6 -14 13 1 8 -1 11 -6 8 -5 -3 -55 43 -111 102 -55 59 -119 120 -141 136
-21 16 -37 33 -34 38 3 4 -3 8 -13 8 -10 0 -24 9 -30 19 -24 38 0 29 64 -24
l66 -54 29 29 c83 83 174 139 271 165 70 18 199 19 272 0z m-1211 -44 c4 -5
-3 -7 -14 -4 -23 6 -26 13 -6 13 8 0 17 -4 20 -9z m1262 -17 c18 -14 18 -14
-6 -3 -31 14 -36 19 -24 19 6 0 19 -7 30 -16z m-243 -1 c-7 -2 -21 -2 -30 0
-10 3 -4 5 12 5 17 0 24 -2 18 -5z m110 0 c-7 -2 -19 -2 -25 0 -7 3 -2 5 12 5
14 0 19 -2 13 -5z m113 -29 c18 -14 18 -14 -6 -3 -31 14 -36 19 -24 19 6 0 19
-7 30 -16z m58 -33 c-2 -3 -12 3 -22 13 -16 17 -16 18 5 5 12 -7 20 -15 17
-18z m-484 -5 c0 -2 -8 -10 -17 -17 -16 -13 -17 -12 -4 4 13 16 21 21 21 13z
m530 -21 c13 -14 21 -25 18 -25 -2 0 -15 11 -28 25 -13 14 -21 25 -18 25 2 0
15 -11 28 -25z m-605 -45 c-21 -22 -40 -38 -43 -36 -4 4 69 75 78 76 2 0 -13
-18 -35 -40z m-545 6 c0 -3 -4 -8 -10 -11 -5 -3 -10 -1 -10 4 0 6 5 11 10 11
6 0 10 -2 10 -4z m1211 -23 c13 -16 12 -17 -3 -4 -17 13 -22 21 -14 21 2 0 10
-8 17 -17z m-1241 2 c0 -7 -56 -34 -102 -51 -21 -7 -36 -9 -33 -4 3 6 12 10
18 10 7 0 35 11 62 24 59 29 55 27 55 21z m991 -26 c-5 -13 -10 -19 -10 -12
-1 15 10 45 15 40 3 -2 0 -15 -5 -28z m-110 -26 c-12 -20 -14 -14 -5 12 4 9 9
14 11 11 3 -2 0 -13 -6 -23z m120 -24 c-13 -22 -17 -25 -24 -13 -5 8 -6 20 -3
27 2 7 5 3 5 -7 1 -19 1 -19 15 -1 8 11 12 26 9 35 -4 12 -3 12 5 1 7 -9 5
-22 -7 -42z m-692 14 c-7 -10 -30 -38 -50 -63 -33 -41 -36 -47 -23 -64 17 -24
9 -34 -56 -76 -52 -34 -68 -33 -110 0 -21 17 -21 19 -5 14 16 -5 17 -4 5 4 -8
7 -19 7 -25 2 -6 -5 -17 -5 -25 0 -14 9 -13 11 9 14 5 0 19 12 30 25 12 13 21
19 21 13 0 -8 12 -6 35 5 20 9 34 22 31 28 -2 6 3 19 10 30 14 19 15 19 35 -1
l21 -21 50 53 c50 53 74 71 47 37z m519 -13 c-7 -10 -14 -17 -17 -15 -4 4 18
35 25 35 2 0 -1 -9 -8 -20z m112 4 c0 -8 -4 -12 -10 -9 -5 3 -10 10 -10 16 0
5 5 9 10 9 6 0 10 -7 10 -16z m-420 -34 c0 -3 -6 -7 -14 -7 -8 0 -14 8 -13 18
1 14 4 15 14 7 7 -6 13 -14 13 -18z m540 27 c0 -2 -10 -12 -22 -23 l-23 -19
19 23 c18 21 26 27 26 19z m298 -37 c13 -17 17 -27 8 -24 -11 4 -41 54 -33 54
2 0 13 -13 25 -30z m1103 -17 c13 -16 12 -17 -3 -4 -10 7 -18 15 -18 17 0 8 8
3 21 -13z m-1386 -3 c-3 -5 -11 -10 -16 -10 -6 0 -7 5 -4 10 3 6 11 10 16 10
6 0 7 -4 4 -10z m-569 -16 c-3 -9 -6 -20 -6 -25 0 -6 -4 -8 -8 -5 -14 9 -4
-175 14 -230 9 -30 20 -57 24 -59 5 -3 2 16 -6 42 -10 34 -12 69 -7 123 l7 75
11 -97 c8 -62 18 -102 28 -112 9 -9 19 -25 22 -36 4 -11 11 -17 17 -14 7 4 8
2 4 -4 -8 -14 33 -74 46 -66 5 3 7 0 6 -8 -2 -7 3 -12 10 -10 8 1 11 -2 8 -7
-10 -16 14 -23 31 -9 14 11 16 11 8 -2 -14 -23 -15 -41 -2 -38 18 3 58 -12 53
-21 -6 -9 11 -11 117 -16 68 -3 96 0 125 14 41 19 100 54 119 71 7 5 18 9 25
8 8 -2 12 5 10 17 -3 16 -1 18 9 8 9 -9 17 -10 28 -1 9 6 1 -4 -17 -21 -19
-18 -32 -35 -29 -38 9 -9 89 78 83 92 -5 14 11 15 31 2 6 -4 14 -3 17 2 3 5
-1 12 -10 15 -20 8 -12 19 16 23 24 4 25 -5 4 -35 -11 -16 -19 -20 -28 -13 -8
7 -15 4 -23 -8 -15 -23 -5 -35 16 -20 9 6 -13 -16 -47 -50 -35 -34 -75 -66
-88 -72 -15 -5 -22 -14 -18 -21 4 -6 3 -8 -3 -5 -6 4 -36 -3 -68 -14 -32 -11
-90 -24 -129 -27 l-71 -7 50 -6 c41 -5 37 -6 -20 -4 -71 3 -129 21 -119 36 3
5 -2 6 -10 3 -8 -3 -28 2 -45 11 -32 16 -43 32 -16 21 22 -8 18 2 -6 15 -17 8
-20 8 -14 -1 5 -9 1 -10 -14 -5 -12 4 -21 2 -21 -4 0 -6 4 -11 8 -11 5 0 19
-9 32 -20 13 -11 20 -20 16 -20 -31 0 -195 157 -188 179 3 8 0 11 -7 7 -6 -4
-11 -2 -11 3 0 19 22 12 27 -9 3 -11 9 -20 14 -20 5 0 9 -6 9 -12 0 -15 75
-88 90 -88 5 0 10 5 10 11 0 5 6 7 13 3 6 -4 4 2 -7 14 -10 12 -22 20 -26 17
-12 -8 -63 53 -55 66 5 7 4 10 -3 5 -13 -8 -27 12 -27 39 0 11 -6 20 -12 20
-7 0 -22 17 -33 38 -11 20 -17 37 -12 37 4 0 13 -14 21 -31 18 -41 25 -31 7
12 -16 40 -35 156 -27 165 3 3 6 18 7 32 1 59 16 112 31 112 10 0 13 -6 9 -16z
m-371 -14 c-3 -5 -10 -10 -16 -10 -5 0 -9 5 -9 10 0 6 7 10 16 10 8 0 12 -4 9
-10z m1192 -37 c-3 -10 -5 -4 -5 12 0 17 2 24 5 18 2 -7 2 -21 0 -30z m-432 3
c-16 -7 -37 -11 -45 -9 -13 4 -13 3 -1 -5 8 -6 19 -8 26 -6 6 3 12 -2 12 -10
0 -8 -4 -13 -9 -10 -4 3 -8 -2 -8 -11 0 -8 7 -18 15 -21 8 -4 15 -14 15 -23 1
-14 2 -14 11 2 6 9 15 14 21 11 7 -4 8 -2 4 4 -4 7 -1 12 10 12 13 0 14 3 4
15 -7 8 -21 15 -31 15 -12 0 -19 7 -18 18 0 10 3 12 6 5 7 -18 23 -16 23 2 0
23 22 18 53 -11 23 -21 27 -32 22 -53 -4 -14 -8 -31 -9 -37 -11 -65 -139 -77
-186 -17 -19 25 -29 90 -11 79 5 -3 8 2 7 12 -1 20 57 52 94 52 24 -1 24 -1
-5 -14z m-1481 -12 c8 -3 12 -12 10 -19 -5 -11 -11 -11 -30 -3 -18 8 -21 14
-12 20 16 9 13 9 32 2z m1726 -14 c13 -8 13 -10 -2 -10 -9 0 -20 5 -23 10 -8
13 5 13 25 0z m-762 -33 c-26 -30 -67 -125 -68 -159 0 -15 -5 -30 -10 -33 -6
-4 -8 -16 -4 -28 4 -12 6 -39 6 -59 -1 -21 3 -38 8 -38 6 0 10 -4 10 -10 0 -5
-6 -9 -12 -7 -7 1 -11 -5 -9 -13 2 -8 7 -53 12 -99 5 -47 11 -86 13 -88 1 -2
34 28 72 67 40 41 76 70 89 70 17 0 15 -3 -10 -18 -17 -10 -56 -51 -88 -90
-32 -40 -64 -72 -72 -72 -12 0 -12 -4 0 -27 8 -15 13 -28 12 -30 -2 -1 -16 2
-33 6 -24 8 -18 16 9 12 4 0 7 3 7 9 0 5 -3 10 -8 10 -4 0 -12 10 -17 23 -7
15 -17 21 -35 20 -14 -1 -20 0 -14 3 7 3 10 15 7 27 -4 19 -1 18 26 -11 21
-21 31 -27 31 -17 0 9 -7 18 -16 22 -11 4 -12 8 -4 13 8 5 8 29 1 90 -6 45 -8
87 -4 93 3 6 1 7 -5 3 -16 -10 -47 53 -33 67 8 8 15 7 24 -2 9 -10 9 -15 0
-18 -13 -5 -6 -33 8 -33 12 0 12 77 0 84 -5 3 -7 16 -5 29 2 12 2 16 -2 10 -8
-17 -29 -16 -43 1 -8 10 -9 16 -1 21 5 3 10 11 10 17 0 7 -5 6 -15 -2 -8 -7
-22 -10 -30 -6 -17 6 -20 26 -4 26 5 0 7 -6 3 -12 -5 -9 -3 -9 9 1 9 7 14 17
11 22 -3 5 0 9 7 9 7 0 10 3 7 6 -4 3 -18 -2 -32 -11 -14 -9 -29 -14 -35 -11
-5 3 -12 0 -14 -6 -4 -9 -6 -8 -6 2 -1 8 13 24 29 35 16 11 30 27 30 36 0 19
25 43 37 36 4 -3 19 -35 32 -70 23 -62 41 -78 41 -38 0 20 45 128 62 149 6 6
16 12 23 12 9 0 7 -8 -7 -23z m-846 -136 c67 -62 82 -71 115 -71 l38 0 -105
-97 c-58 -53 -199 -189 -314 -302 -115 -113 -194 -186 -175 -161 36 46 210
223 367 373 60 58 91 94 88 104 -3 8 -1 11 4 8 6 -4 29 10 52 31 34 31 37 36
18 31 -20 -5 -35 5 -95 66 -38 40 -82 82 -98 94 -15 12 -27 29 -27 37 0 12 8
8 28 -13 15 -15 62 -61 104 -100z m1858 119 c0 -5 -2 -10 -4 -10 -3 0 -8 5
-11 10 -3 6 -1 10 4 10 6 0 11 -4 11 -10z m-973 -47 c-3 -10 -5 -4 -5 12 0 17
2 24 5 18 2 -7 2 -21 0 -30z m707 -19 c3 -8 2 -12 -4 -9 -6 3 -10 10 -10 16 0
14 7 11 14 -7z m209 -29 c5 -28 4 -34 -3 -20 -8 19 -14 73 -6 64 2 -2 6 -22 9
-44z m-1513 -6 c-104 -93 -163 -141 -140 -115 29 33 170 156 179 156 3 0 -14
-18 -39 -41z m1320 7 c0 -2 -7 -7 -16 -10 -8 -3 -12 -2 -9 4 6 10 25 14 25 6z
m140 -53 c-11 -17 -11 -17 -6 0 3 10 6 24 7 30 0 9 2 9 5 0 3 -7 0 -20 -6 -30z
m41 -11 c-5 -2 -7 -11 -4 -20 4 -13 2 -13 -10 3 -11 15 -12 24 -4 43 l11 24 9
-24 c5 -14 4 -24 -2 -26z m-919 -4 c-13 -13 -16 -29 -4 -27 16 3 23 -2 17 -11
-5 -8 -11 -7 -20 0 -11 9 -16 6 -21 -15 -3 -14 -9 -24 -12 -21 -8 9 29 86 42
86 6 0 5 -5 -2 -12z m988 -38 c-6 -11 -15 -20 -21 -20 -6 0 -7 -4 -4 -10 3 -5
1 -10 -5 -10 -6 0 -8 -5 -4 -12 5 -7 3 -8 -6 -3 -10 6 -12 4 -6 -11 5 -14 4
-16 -4 -8 -9 9 -8 18 5 38 10 14 21 26 26 26 5 0 8 3 8 8 -3 15 1 22 11 22 7
0 7 -6 0 -20z m-1148 -22 c-7 -7 -12 -8 -12 -2 0 6 3 14 7 17 3 4 9 5 12 2 2
-3 -1 -11 -7 -17z m224 -7 c-4 -5 -1 -12 4 -14 6 -3 5 -4 -2 -3 -15 3 -23 26
-8 26 6 0 9 -4 6 -9z m-62 -22 c-6 -11 -24 -2 -24 11 0 5 7 7 15 4 8 -4 12
-10 9 -15z m-54 -36 c-11 -17 -11 -17 -6 0 3 10 6 24 7 30 0 9 2 9 5 0 3 -7 0
-20 -6 -30z m-2287 -25 c-8 -59 -13 -61 -13 -5 0 26 4 47 9 47 5 0 7 -19 4
-42z m3254 17 c-9 -7 -13 -16 -9 -20 4 -5 1 -5 -7 0 -12 7 -11 10 2 20 9 7 13
16 9 20 -4 5 -1 5 7 0 12 -7 11 -10 -2 -20z m-942 -17 c-3 -12 -10 -26 -16
-32 -8 -8 -8 -5 0 12 6 12 9 22 6 22 -4 0 -3 5 0 10 10 16 14 11 10 -12z
m-2225 2 c12 -6 30 -44 49 -105 37 -117 88 -199 135 -219 39 -16 56 -42 56
-85 0 -20 10 -41 30 -61 17 -18 33 -45 37 -61 7 -37 23 -49 69 -52 42 -3 47
-9 64 -87 28 -123 40 -150 97 -213 72 -81 146 -178 139 -184 -2 -3 -33 30 -68
73 -35 43 -80 97 -100 119 -43 48 -53 71 -74 173 -22 112 -20 108 -60 109 -42
1 -64 19 -78 65 -7 20 -22 38 -38 46 -25 12 -28 19 -28 61 0 51 -15 72 -57 85
-22 7 -78 77 -105 131 -8 17 -23 61 -33 98 -13 49 -26 75 -47 92 -30 25 -23
34 12 15z m3141 -17 c12 -16 12 -17 -1 -7 -11 8 -19 6 -32 -8 -10 -10 -15 -18
-11 -18 11 0 -40 -44 -54 -46 -7 -1 -11 2 -7 7 3 5 0 9 -7 9 -7 0 -9 3 -6 6 4
4 12 2 19 -3 12 -9 44 13 50 35 2 6 31 42 34 42 1 0 8 -8 15 -17z m714 7 c3
-5 1 -10 -4 -10 -6 0 -11 5 -11 10 0 6 2 10 4 10 3 0 8 -4 11 -10z m-2274 -73
c18 -23 24 -26 37 -15 13 11 14 11 7 -2 -14 -23 -13 -32 9 -70 l20 -35 -27 28
c-14 15 -33 27 -42 27 -11 0 -15 6 -10 19 3 12 0 21 -10 24 -8 4 -12 13 -9 22
4 10 0 15 -11 15 -11 0 -15 5 -11 15 3 10 -1 15 -12 16 -10 0 -12 3 -4 6 6 2
10 10 6 16 -6 12 17 -14 57 -66z m-1614 -232 c46 -198 154 -460 255 -624 64
-102 197 -275 302 -393 121 -135 242 -241 376 -329 57 -38 99 -69 91 -69 -32
0 -249 159 -353 259 -129 124 -292 314 -378 444 -143 215 -271 519 -318 757
-21 106 -32 174 -31 194 1 12 8 -13 15 -54 8 -41 26 -124 41 -185z m1769 149
c39 -47 40 -50 18 -58 -8 -3 -13 -2 -10 3 3 5 -1 15 -10 22 -8 7 -24 29 -34
50 -11 20 -31 46 -44 57 -14 11 -22 23 -18 26 7 7 19 -6 98 -100z m1264 71
c-7 -8 -17 -15 -23 -15 -6 0 -2 7 9 15 25 19 30 19 14 0z m-1188 -70 c-15 -38
-35 -71 -43 -73 -11 -4 -11 -1 2 14 8 10 21 39 28 64 13 43 30 74 37 67 2 -2
-9 -35 -24 -72z m233 47 c17 -9 33 -15 37 -14 4 1 5 -5 2 -13 -5 -12 -17 -9
-67 17 -34 16 -64 33 -67 35 -10 11 66 -10 95 -25z m979 -3 c-3 -5 -10 -7 -15
-3 -5 3 -7 10 -3 15 3 5 10 7 15 3 5 -3 7 -10 3 -15z m-1134 7 c0 -3 -4 -8
-10 -11 -5 -3 -10 -1 -10 4 0 6 5 11 10 11 6 0 10 -2 10 -4z m1047 -13 c-10
-10 -87 -43 -87 -37 0 4 79 43 89 44 2 0 1 -3 -2 -7z m23 -24 c0 -5 -4 -8 -9
-4 -5 3 -12 1 -16 -5 -3 -5 -11 -10 -18 -10 -6 0 -2 7 9 15 23 17 34 19 34 4z
m-395 -17 c-3 -3 -11 0 -18 7 -9 10 -8 11 6 5 10 -3 15 -9 12 -12z m272 2 c-3
-3 -12 -4 -19 -1 -8 3 -5 6 6 6 11 1 17 -2 13 -5z m-707 -8 c0 -3 -4 -8 -10
-11 -5 -3 -10 -1 -10 4 0 6 5 11 10 11 6 0 10 -2 10 -4z m754 -10 c-10 -8 -21
-12 -24 -10 -5 6 21 24 34 24 6 0 1 -6 -10 -14z m-126 -11 c50 0 92 -3 92 -6
0 -13 -204 -4 -225 9 -18 11 -17 11 10 5 17 -5 72 -8 123 -8z m-1278 -93 l-62
-77 61 -13 c58 -13 62 -13 102 11 34 21 46 23 65 15 13 -6 24 -16 24 -22 0 -6
-5 -5 -12 2 -24 24 -58 14 -79 -23 -12 -19 -25 -35 -29 -35 -5 0 -16 -8 -26
-17 -17 -17 -17 -16 -11 13 5 27 3 33 -16 38 -50 13 -220 -2 -252 -22 -5 -4
-12 -7 -15 -8 -22 -4 -84 -38 -100 -54 -11 -11 -20 -17 -20 -14 0 3 -11 -8
-25 -24 -14 -17 -25 -35 -25 -41 0 -6 -5 -11 -10 -11 -17 0 5 33 54 83 53 52
127 89 216 107 74 14 114 46 178 138 20 30 38 49 40 43 2 -6 -24 -46 -58 -89z
m256 -32 c9 -19 27 -49 40 -67 13 -17 24 -35 24 -38 0 -10 -25 1 -25 11 -1 17
-39 73 -47 68 -4 -3 -5 3 -1 12 5 13 3 15 -7 9 -9 -5 -11 -4 -6 3 4 7 2 12 -4
12 -6 0 -9 4 -6 9 4 5 3 11 -1 13 -5 1 -16 19 -26 38 l-19 35 31 -35 c17 -19
38 -51 47 -70z m294 80 c-8 -5 -24 -9 -35 -9 l-20 0 20 9 c11 5 27 9 35 9 13
1 13 0 0 -9z m-1640 -10 c0 -5 -2 -10 -4 -10 -3 0 -8 5 -11 10 -3 6 -1 10 4
10 6 0 11 -4 11 -10z m1443 -17 c3 -5 -8 -8 -24 -9 -16 -1 -29 3 -29 7 0 11
47 12 53 2z m36 -98 c0 -5 -6 1 -14 15 -8 14 -14 30 -14 35 0 6 6 -1 14 -15 8
-14 14 -29 14 -35z m428 -24 c29 -14 61 -21 103 -21 66 0 100 -12 100 -35 0
-18 -12 -19 -28 -3 -9 9 -15 9 -24 0 -7 -7 -17 -12 -23 -12 -5 0 -3 5 5 11 21
14 -40 5 -68 -10 -11 -6 -27 -11 -34 -11 -7 1 -2 7 11 14 28 15 8 28 -24 15
-11 -4 -35 -8 -53 -8 -31 -1 -33 1 -28 29 2 17 0 30 -6 30 -6 0 -8 -6 -5 -13
3 -8 1 -20 -5 -28 -8 -11 -9 -11 -5 3 4 9 -1 19 -10 23 -13 4 -14 8 -5 17 7 7
12 19 12 28 -1 12 -4 11 -18 -5 -9 -11 -25 -19 -35 -17 -16 3 -15 6 7 29 15
14 26 30 26 36 0 6 15 -3 33 -20 17 -17 51 -40 74 -52z m1495 27 c-7 -7 -12
-8 -12 -2 0 14 12 26 19 19 2 -3 -1 -11 -7 -17z m-1882 -60 c0 -14 -19 1 -31
25 -12 22 -12 22 10 3 11 -11 21 -23 21 -28z m-218 -25 c11 -10 21 -16 22 -13
1 3 17 -8 35 -23 19 -15 31 -30 29 -33 -3 -2 -17 8 -31 22 -17 17 -27 22 -27
13 -1 -10 -4 -8 -11 4 -6 9 -15 14 -21 11 -7 -5 -8 -2 -3 6 6 10 4 12 -9 7
-11 -4 -15 -3 -10 4 4 8 -1 9 -15 4 -12 -4 -21 -2 -21 4 0 6 -5 11 -11 11 -5
0 -8 -4 -5 -8 3 -5 -1 -9 -9 -9 -16 0 -19 9 -7 21 11 12 73 -1 94 -21z m168
-33 c0 -21 20 -40 35 -34 18 7 30 -15 16 -29 -9 -9 -11 -8 -5 6 5 13 2 16 -10
11 -11 -4 -28 7 -55 37 -21 24 -37 47 -34 52 7 11 52 -26 53 -43z m435 10 c3
-5 -1 -10 -10 -10 -9 0 -13 5 -10 10 3 6 8 10 10 10 2 0 7 -4 10 -10z m-38
-16 c-3 -3 -12 -4 -19 -1 -8 3 -5 6 6 6 11 1 17 -2 13 -5z m-523 -29 c11 -8
16 -15 10 -15 -5 0 -18 7 -28 15 -11 8 -16 15 -10 15 5 0 18 -7 28 -15z m156
-39 c0 -2 -8 -10 -17 -17 -16 -13 -17 -12 -4 4 13 16 21 21 21 13z m-40 -31
c0 -2 -20 -18 -45 -35 -25 -17 -45 -29 -45 -26 0 4 80 64 88 66 1 0 2 -2 2 -5z
m2015 -15 c3 -5 1 -10 -4 -10 -6 0 -11 5 -11 10 0 6 2 10 4 10 3 0 8 -4 11
-10z m-2159 -69 c2 -2 10 2 19 9 9 7 18 11 20 8 3 -2 -16 -19 -41 -36 -43 -31
-45 -34 -38 -70 l7 -37 -45 45 c-39 39 -76 106 -64 117 2 2 9 -11 15 -28 6
-18 18 -41 27 -50 15 -16 17 -16 51 3 35 21 36 24 17 85 -3 10 2 5 12 -12 9
-16 18 -32 20 -34z m-219 27 c-3 -8 -6 -5 -6 6 -1 11 2 17 5 13 3 -3 4 -12 1
-19z m383 -12 c0 -2 -8 -10 -17 -17 -16 -13 -17 -12 -4 4 13 16 21 21 21 13z
m-380 -56 c0 -5 3 -9 8 -8 15 3 62 -14 62 -24 0 -5 -6 -8 -12 -7 -7 1 -22 1
-32 0 -19 -1 -19 -1 0 -23 18 -21 18 -21 -14 1 -26 18 -31 26 -20 32 10 7 10
9 -2 10 -8 1 -19 1 -24 0 -5 -1 -4 5 4 13 14 18 30 21 30 6z m245 -10 c3 -5
-1 -10 -10 -10 -9 0 -13 5 -10 10 3 6 8 10 10 10 2 0 7 -4 10 -10z m-315 -30
c-14 -11 -28 -20 -32 -20 -4 0 -10 -9 -13 -21 -4 -11 -9 -18 -12 -16 -9 10 18
47 45 61 37 21 42 19 12 -4z m584 -36 c3 -8 2 -12 -4 -9 -6 3 -10 10 -10 16 0
14 7 11 14 -7z m-562 -46 c-7 -7 -12 -8 -12 -2 0 6 3 14 7 17 3 4 9 5 12 2 2
-3 -1 -11 -7 -17z m33 13 c3 -5 2 -12 -3 -15 -5 -3 -9 1 -9 9 0 17 3 19 12 6z
m115 -21 c0 -5 -4 -10 -9 -10 -6 0 -13 5 -16 10 -3 6 1 10 9 10 9 0 16 -4 16
-10z m-511 -47 c6 -21 18 -48 26 -61 9 -12 13 -27 9 -34 -4 -6 -3 -8 3 -5 5 3
17 -9 26 -28 10 -21 22 -33 30 -29 7 2 22 -4 32 -16 10 -11 15 -20 12 -20 -4
0 -10 0 -14 0 -5 0 -8 5 -8 12 0 6 -6 13 -12 16 -7 2 -13 -1 -13 -6 0 -15 29
-36 52 -37 10 -1 34 -17 51 -35 18 -19 22 -26 10 -16 -13 11 -23 14 -23 8 0
-15 30 -29 57 -27 12 1 21 -1 18 -5 -2 -3 17 -17 43 -30 68 -33 187 -39 265
-11 31 11 57 16 57 12 0 -13 -97 -42 -156 -48 -60 -6 -154 17 -197 49 -19 13
-32 17 -39 10 -7 -7 9 -17 46 -31 117 -44 164 -48 308 -27 19 3 25 0 22 -9 -8
-21 -126 -38 -207 -30 -40 4 -69 3 -64 -1 4 -4 51 -11 105 -14 l97 -7 -79 -1
c-84 -2 -167 15 -144 30 10 6 10 8 -2 8 -56 0 -202 129 -262 231 -21 35 -38
60 -38 56 0 -15 33 -72 72 -124 50 -68 49 -80 -1 -17 -40 51 -74 111 -85 154
-6 20 -5 22 4 10 10 -12 11 -12 5 5 -4 11 -9 35 -12 53 -3 17 -10 32 -14 32
-5 0 -9 5 -9 10 0 25 20 6 29 -27z m-21 -128 c-3 -3 -9 2 -12 12 -6 14 -5 15
5 6 7 -7 10 -15 7 -18z m32 -58 c0 -4 -7 -2 -15 7 -8 8 -15 21 -15 28 1 14 30
-20 30 -35z m-330 -20 c14 -13 34 -29 45 -36 19 -11 18 -11 -5 -5 -13 4 -37
20 -51 35 -32 35 -24 39 11 6z m361 -19 c13 -25 71 -84 134 -136 25 -21 31
-29 15 -21 -29 14 -157 135 -171 162 -6 11 -6 17 0 17 6 0 16 -10 22 -22z
m786 -33 c0 -8 -4 -12 -9 -9 -5 3 -6 10 -3 15 9 13 12 11 12 -6z m-1033 -18
c17 -13 68 -43 114 -67 51 -26 93 -56 109 -77 14 -19 49 -49 78 -68 28 -19 66
-53 84 -75 18 -23 48 -49 67 -57 19 -9 34 -19 34 -23 0 -3 17 -5 38 -3 32 2
33 1 8 -5 -35 -8 -27 -17 49 -52 28 -13 54 -30 58 -37 5 -7 13 -10 19 -7 7 4
8 2 4 -4 -4 -7 11 -23 36 -39 24 -15 52 -36 62 -45 11 -10 24 -18 28 -18 5 0
6 -5 3 -10 -4 -7 2 -9 19 -4 25 6 142 -26 120 -33 -6 -2 -29 2 -51 10 -22 7
-51 13 -64 12 -13 -2 -43 11 -67 26 -24 16 -48 26 -54 23 -7 -5 -9 -2 -5 8 7
19 -57 85 -67 69 -4 -5 4 -17 18 -26 13 -9 27 -23 30 -31 4 -10 2 -13 -7 -7
-6 4 -15 8 -19 8 -5 0 -8 5 -9 10 0 6 -7 17 -15 26 -11 12 -11 18 -1 28 9 10
9 12 -3 11 -8 -1 -22 -2 -30 -1 -13 1 -13 2 0 12 12 9 11 10 -8 6 -13 -3 -20
-1 -16 5 4 6 -1 8 -15 3 -15 -5 -21 -2 -21 9 0 15 -13 21 -35 16 -5 -1 -7 2
-3 5 8 8 -34 45 -50 45 -6 0 -32 25 -58 56 -26 31 -68 70 -93 87 -24 17 -58
46 -74 64 -28 32 -141 102 -171 107 -14 2 -92 66 -80 66 4 0 21 -11 38 -23z
m394 -60 c19 -15 31 -27 27 -27 -12 0 -85 64 -85 74 0 6 6 4 13 -4 7 -8 27
-27 45 -43z m91 -53 c14 -12 -19 -1 -35 12 -18 14 -18 14 6 3 14 -6 27 -13 29
-15z m356 6 c-3 -5 -12 -10 -18 -10 -7 0 -6 4 3 10 19 12 23 12 15 0z m71 -2
c4 -7 4 -10 -1 -6 -4 4 -15 2 -24 -5 -14 -11 -14 -10 -2 6 16 20 18 21 27 5z
m-461 -18 c3 -6 -1 -7 -9 -4 -18 7 -21 14 -7 14 6 0 13 -4 16 -10z m340 0
c-11 -5 -27 -9 -35 -9 -9 0 -8 4 5 9 11 5 27 9 35 9 9 0 8 -4 -5 -9z m68 -5
c-3 -9 -8 -14 -10 -11 -3 3 -2 9 2 15 9 16 15 13 8 -4z m-31 -17 c-7 -7 -12
-8 -12 -2 0 14 12 26 19 19 2 -3 -1 -11 -7 -17z m-303 -4 c13 -11 -8 -10 -34
2 l-30 13 30 -6 c17 -3 32 -7 34 -9z m36 -14 c3 -5 2 -10 -4 -10 -5 0 -13 5
-16 10 -3 6 -2 10 4 10 5 0 13 -4 16 -10z m195 1 c-21 -12 -85 -22 -74 -11 8
7 30 12 79 18 6 1 3 -3 -5 -7z m-90 -13 c0 -11 -28 -10 -35 1 -3 6 4 9 15 8
11 -1 20 -5 20 -9z m-346 -84 c5 -14 4 -15 -9 -4 -17 14 -19 20 -6 20 5 0 12
-7 15 -16z m334 -134 c29 -11 69 -20 90 -21 36 -1 36 -1 9 -9 -21 -6 -44 -3
-85 12 -31 12 -61 25 -66 30 -14 12 -7 10 52 -12z m185 -17 c-7 -2 -21 -2 -30
0 -10 3 -4 5 12 5 17 0 24 -2 18 -5z m185 -4 c-21 -5 -62 -5 -95 0 -56 8 -54
9 37 9 75 0 87 -2 58 -9z m314 -92 c7 -12 12 -26 13 -30 0 -5 9 -15 19 -23 32
-23 9 -16 -33 10 -21 14 -42 22 -47 18 -4 -4 -4 -1 1 7 7 12 -2 13 -51 8 -33
-3 -64 -3 -71 1 -6 4 16 8 50 9 33 2 69 5 81 9 12 4 18 3 14 -1 -9 -10 10 -35
26 -35 6 0 4 5 -4 10 -8 5 -15 15 -15 22 0 8 -11 12 -25 11 -14 -1 -19 1 -12
3 6 3 9 10 6 16 -4 6 2 5 15 -1 11 -6 26 -21 33 -34z m-764 -12 c-3 -3 -9 2
-12 12 -6 14 -5 15 5 6 7 -7 10 -15 7 -18z m16 -41 c3 -8 2 -12 -4 -9 -6 3
-10 10 -10 16 0 14 7 11 14 -7z m1836 -9 c0 -2 -10 -9 -22 -15 -22 -11 -22
-10 -4 4 21 17 26 19 26 11z m-2173 -52 c71 -38 91 -55 116 -95 29 -46 32 -48
76 -49 48 -1 41 -5 -34 -23 -22 -5 -26 -4 -15 4 10 6 11 10 2 10 -7 0 -26 23
-43 50 -24 39 -45 58 -88 80 -61 32 -120 70 -108 70 4 0 46 -21 94 -47z m403
4 c-3 -3 6 -18 20 -34 17 -19 18 -22 4 -10 -11 9 -24 15 -27 12 -4 -3 -5 -2
-2 2 8 10 -16 33 -28 26 -5 -3 -7 -1 -4 5 4 5 15 9 25 8 9 -2 15 -5 12 -9z
m129 -16 c13 -21 58 -40 69 -29 6 6 12 6 17 -1 3 -6 3 -11 -2 -10 -24 4 -24
-4 2 -31 15 -16 33 -27 38 -23 6 4 7 1 2 -6 -5 -9 -20 -1 -50 29 -28 28 -49
41 -59 37 -9 -4 -15 -3 -14 1 3 14 -14 42 -22 37 -5 -3 -11 -1 -14 4 -4 5 1 8
10 7 8 -1 19 -8 23 -15z m-74 -19 c-3 -3 -11 0 -18 7 -9 10 -8 11 6 5 10 -3
15 -9 12 -12z m820 8 c-3 -6 -21 -17 -38 -26 -36 -19 -31 -9 10 17 34 21 36
22 28 9z m-876 -73 c23 -20 41 -40 41 -44 0 -4 -19 12 -43 35 -24 23 -46 40
-49 37 -3 -4 -9 -2 -12 3 -14 23 25 4 63 -31z m132 16 c13 -16 12 -17 -3 -4
-17 13 -22 21 -14 21 2 0 10 -8 17 -17z m975 5 c4 -6 3 -8 -3 -5 -6 4 -29 -3
-52 -14 -54 -26 -91 -40 -91 -34 0 5 119 63 132 64 4 1 10 -4 14 -11z m125
-45 c12 -16 12 -17 -2 -6 -9 7 -20 9 -24 5 -5 -4 -5 -1 -1 6 9 16 11 15 27 -5z
m-1227 -43 c32 -11 62 -17 67 -14 5 3 9 0 9 -5 0 -17 -24 -13 -95 13 -63 24
-104 20 -45 -4 17 -7 29 -15 26 -17 -2 -2 -24 6 -48 19 -23 12 -52 26 -63 29
-17 6 -16 7 7 8 15 1 30 5 33 11 4 6 15 4 29 -5 12 -8 48 -24 80 -35z m1006
-5 c-24 -25 -48 -45 -53 -45 -9 0 83 89 93 90 2 0 -16 -20 -40 -45z m75 7 c-3
-3 -11 0 -18 7 -9 10 -8 11 6 5 10 -3 15 -9 12 -12z m-570 3 c-49 -19 -227
-60 -231 -54 -3 5 -14 9 -26 9 -18 0 -19 -2 -7 -17 13 -17 13 -17 -7 0 -21 17
-80 24 -70 8 3 -5 14 -7 24 -4 10 2 26 -5 37 -18 l20 -22 -28 18 c-20 13 -31
15 -39 7 -13 -13 -38 -4 -38 15 0 8 -5 11 -12 7 -10 -5 -10 -4 -2 5 8 8 47 12
115 13 57 0 108 3 114 6 16 11 97 30 130 30 17 0 26 -1 20 -3z m141 -17 c1
-11 -3 -15 -14 -11 -11 5 -13 3 -7 -8 5 -8 5 -11 -1 -6 -5 5 -9 12 -9 15 0 4
-3 12 -7 18 -5 7 0 11 14 10 12 0 22 -9 24 -18z m96 10 c-13 -15 -72 -51 -72
-44 0 5 71 56 79 56 2 0 -1 -6 -7 -12z m162 0 c-4 -7 -13 -21 -21 -30 -13 -14
-13 -16 1 -14 9 1 23 11 31 22 8 10 15 15 15 10 0 -5 8 -2 17 5 11 9 14 10 9
2 -11 -20 -94 -74 -99 -66 -2 5 2 22 9 38 7 17 13 26 14 20 0 -5 5 -2 11 8 5
9 12 17 15 17 3 0 2 -6 -2 -12z m242 -20 l19 -23 -21 18 c-20 16 -22 16 -28 1
-3 -9 -13 -14 -21 -10 -8 3 -17 1 -20 -4 -4 -6 -11 -10 -18 -10 -6 0 -1 7 11
16 12 8 28 12 35 8 8 -5 8 -2 -2 9 -22 28 22 22 45 -5z m-380 -3 c-1 -8 -5
-18 -9 -21 -4 -4 -1 -14 5 -23 7 -9 8 -13 4 -9 -5 4 -21 -1 -35 -11 -43 -30
-55 -35 -47 -23 12 19 -6 14 -30 -9 -12 -12 -28 -18 -34 -14 -8 5 4 16 31 32
33 18 44 21 51 11 7 -13 9 -11 12 13 0 6 10 17 21 25 11 8 21 19 21 24 2 16 4
20 8 20 2 0 3 -7 2 -15z m257 -29 c-10 -13 -21 -22 -26 -19 -4 2 3 13 15 23
30 26 32 25 11 -4z m-367 -2 c-5 -12 -2 -15 11 -10 15 6 15 4 -2 -14 -10 -11
-22 -20 -26 -20 -8 0 -4 33 6 50 10 16 18 12 11 -6z m501 -10 c-3 -3 -12 -4
-19 -1 -8 3 -5 6 6 6 11 1 17 -2 13 -5z m83 -4 c0 -5 -2 -10 -4 -10 -3 0 -8 5
-11 10 -3 6 -1 10 4 10 6 0 11 -4 11 -10z m-1160 -6 c0 -6 -65 -34 -77 -33 -4
0 10 9 32 19 48 22 45 21 45 14z m330 1 c0 -7 -30 -13 -34 -7 -3 4 4 9 15 9
10 1 19 0 19 -2z m169 -12 c-6 -7 -15 -10 -20 -7 -13 8 -3 21 15 21 12 0 13
-4 5 -14z m531 -16 c0 -2 -10 -12 -21 -23 -22 -19 -22 -19 -10 4 10 18 31 31
31 19z"/>
<path d="M3960 3856 c0 -23 16 -27 17 -5 1 10 -2 19 -8 19 -5 0 -9 -6 -9 -14z"/>
<path d="M1946 3935 c-11 -8 -16 -15 -10 -15 5 0 18 7 28 15 11 8 16 15 10 15
-5 0 -18 -7 -28 -15z"/>
<path d="M2077 3921 c45 -8 113 -50 144 -89 23 -30 25 -13 4 29 -24 46 -70 69
-135 68 -55 -2 -55 -2 -13 -8z"/>
<path d="M1998 3853 c7 -3 16 -2 19 1 4 3 -2 6 -13 5 -11 0 -14 -3 -6 -6z"/>
<path d="M2030 3850 c0 -12 8 -12 35 0 18 8 17 9 -7 9 -16 1 -28 -3 -28 -9z"/>
<path d="M2200 3756 c0 -2 8 -10 18 -17 15 -13 16 -12 3 4 -13 16 -21 21 -21
13z"/>
<path d="M1568 3713 c7 -3 16 -2 19 1 4 3 -2 6 -13 5 -11 0 -14 -3 -6 -6z"/>
<path d="M1695 3480 c3 -5 8 -10 11 -10 2 0 4 5 4 10 0 6 -5 10 -11 10 -5 0
-7 -4 -4 -10z"/>
<path d="M1760 3426 c0 -2 8 -10 18 -17 15 -13 16 -12 3 4 -13 16 -21 21 -21
13z"/>
<path d="M2066 3088 c5 -8 2 -9 -10 -5 -10 4 -15 3 -11 -3 8 -12 45 -13 45 -1
0 5 -7 12 -16 15 -10 4 -13 2 -8 -6z"/>
<path d="M2177 2985 c10 -13 39 -33 65 -45 66 -29 72 -25 12 10 -28 16 -54 36
-57 44 -4 9 -13 16 -22 16 -14 0 -14 -3 2 -25z"/>
<path d="M2929 2727 c8 -9 16 -15 19 -12 3 3 15 -3 26 -12 21 -18 21 -18 2 5
-11 12 -21 20 -24 17 -3 -3 -12 1 -21 8 -14 11 -14 10 -2 -6z"/>
<path d="M2890 2725 c0 -2 24 -22 53 -43 61 -45 77 -55 77 -49 0 3 -24 22 -52
43 -29 20 -54 41 -56 46 -4 8 -22 12 -22 3z"/>
<path d="M2384 2643 c-22 -6 -30 -12 -19 -13 20 -1 20 -1 1 -12 -18 -10 -19
-11 -1 -24 15 -11 25 -9 64 11 26 13 53 30 60 39 11 13 7 14 -27 13 -21 -1
-56 -7 -78 -14z"/>
<path d="M2850 2307 c0 -2 15 -16 33 -33 l32 -29 -29 33 c-28 30 -36 37 -36
29z"/>
<path d="M3068 2123 c6 -2 18 -2 25 0 6 3 1 5 -13 5 -14 0 -19 -2 -12 -5z"/>
<path d="M3221 2641 c-8 -5 -9 -11 -3 -15 5 -3 12 1 16 9 6 17 6 18 -13 6z"/>
<path d="M3103 2628 c-17 -21 -5 -95 18 -109 24 -15 75 -10 101 11 14 10 28
16 32 12 4 -3 4 1 1 10 -4 9 -2 25 4 36 6 11 7 22 4 26 -4 3 -13 -8 -20 -25
-9 -22 -18 -29 -28 -25 -9 3 -14 2 -11 -3 9 -14 -35 -21 -56 -10 -22 12 -41
56 -34 76 7 16 1 17 -11 1z"/>
<path d="M2457 2514 c-15 -13 -24 -24 -20 -24 12 1 58 38 53 43 -3 3 -18 -6
-33 -19z"/>
<path d="M2511 2454 c0 -11 3 -14 6 -6 3 7 2 16 -1 19 -3 4 -6 -2 -5 -13z"/>
<path d="M1651 1163 c7 -12 15 -20 18 -17 3 2 -3 12 -13 22 -17 16 -18 16 -5
-5z"/>
<path d="M2685 260 c-3 -5 -2 -10 4 -10 5 0 13 5 16 10 3 6 2 10 -4 10 -5 0
-13 -4 -16 -10z"/>
<path d="M4040 569 c0 -5 5 -7 10 -4 6 3 10 8 10 11 0 2 -4 4 -10 4 -5 0 -10
-5 -10 -11z"/>
<path d="M3244 501 c7 -10 -56 -43 -64 -33 -3 4 -9 8 -15 8 -5 1 -26 5 -45 8
l-35 7 30 -26 c17 -14 36 -23 42 -20 7 2 17 -4 22 -13 6 -9 11 -13 11 -8 0 5
8 2 17 -5 11 -9 14 -10 9 -2 -5 9 -2 11 8 7 9 -3 13 -11 9 -17 -4 -6 -1 -7 7
-2 7 4 15 4 19 -1 3 -5 28 -5 57 1 43 8 49 12 38 23 -9 8 -14 9 -14 2 0 -6 -5
-8 -10 -5 -6 4 -7 11 -4 17 4 6 2 8 -4 4 -6 -3 -13 -2 -17 4 -4 6 -12 7 -18 3
-8 -4 -8 -1 1 9 11 13 10 16 -5 14 -10 0 -17 4 -16 11 1 6 -4 14 -13 17 -8 3
-13 2 -10 -3z"/>
<path d="M3558 473 c7 -3 16 -2 19 1 4 3 -2 6 -13 5 -11 0 -14 -3 -6 -6z"/>
<path d="M3345 395 c-27 -7 -41 -14 -30 -15 11 -1 28 -3 38 -5 10 -2 27 5 38
16 22 22 22 22 -46 4z"/>
<path d="M3289 357 c6 -8 7 -18 3 -22 -4 -5 -1 -5 6 -1 7 4 24 0 38 -9 35 -23
40 -13 11 19 -25 27 -80 39 -58 13z"/>
<path d="M3186 342 c-3 -5 13 -26 34 -47 22 -22 40 -35 40 -31 0 5 15 -3 33
-16 43 -33 68 -45 37 -18 -14 12 -51 43 -82 71 -31 27 -59 45 -62 41z"/>
<path d="M3285 300 c10 -11 20 -20 23 -20 3 0 -3 9 -13 20 -10 11 -20 20 -23
20 -3 0 3 -9 13 -20z"/>
<path d="M3304 311 c7 -11 46 -35 46 -28 0 3 -12 12 -26 22 -15 9 -23 12 -20
6z"/>
<path d="M3130 240 c-9 -6 -7 -10 9 -15 27 -8 33 -4 16 12 -6 6 -18 7 -25 3z"/>
<path d="M2730 212 c-37 -32 -53 -70 -19 -49 10 6 18 19 16 27 -1 8 5 15 13
15 8 0 14 -6 13 -12 -4 -17 2 -16 17 3 8 8 9 14 3 12 -6 -2 -10 2 -9 7 0 6 5
9 9 7 5 -1 6 2 2 8 -8 13 -6 14 -45 -18z"/>
<path d="M2110 210 c20 -13 33 -13 25 0 -3 6 -14 10 -23 10 -15 0 -15 -2 -2
-10z"/>
<path d="M2806 201 c2 -3 -15 -17 -38 -33 -24 -15 -38 -28 -31 -28 6 0 15 5
18 11 4 6 14 8 22 5 8 -3 11 -1 8 4 -3 6 -1 11 4 11 26 3 30 4 37 12 12 12 26
8 18 -5 -5 -9 -2 -8 9 1 22 17 14 26 -23 26 -16 0 -26 -2 -24 -4z"/>
<path d="M2920 189 c0 -5 5 -7 10 -4 6 3 10 8 10 11 0 2 -4 4 -10 4 -5 0 -10
-5 -10 -11z"/>
<path d="M3092 191 c-11 -7 -10 -9 3 -14 9 -4 14 -3 10 2 -3 5 1 12 7 14 7 3
9 6 3 6 -5 0 -16 -3 -23 -8z"/>
<path d="M2517 159 c7 -7 15 -10 18 -7 3 3 -2 9 -12 12 -14 6 -15 5 -6 -5z"/>
<path d="M2665 150 c6 -10 4 -12 -11 -6 -10 4 -15 4 -11 0 4 -5 -3 -14 -15
-21 -17 -9 -19 -12 -7 -13 9 0 27 8 40 18 17 15 19 21 9 27 -9 6 -11 4 -5 -5z"/>
<path d="M2167 143 c-8 -7 21 -43 35 -43 4 0 8 5 8 10 0 6 -5 9 -12 8 -7 -2
-12 2 -13 9 0 16 -10 24 -18 16z"/>
<path d="M2210 146 c0 -2 8 -10 18 -17 15 -13 16 -12 3 4 -13 16 -21 21 -21
13z"/>
<path d="M2367 139 c7 -7 15 -10 18 -7 3 3 -2 9 -12 12 -14 6 -15 5 -6 -5z"/>
<path d="M2425 120 c-3 -5 -1 -10 4 -10 6 0 11 5 11 10 0 6 -2 10 -4 10 -3 0
-8 -4 -11 -10z"/>
</g>
</svg>
